<?xml version="1.0" encoding="iso-8859-1"?>
<!-- Generator: Adobe Illustrator 19.0.0, SVG Export Plug-In . SVG Version: 6.00 Build 0)  -->
<svg version="1.1" id="Layer_1" xmlns="http://www.w3.org/2000/svg" xmlns:xlink="http://www.w3.org/1999/xlink" x="0px" y="0px"
	 viewBox="0 0 512 512" style="enable-background:new 0 0 512 512;" xml:space="preserve">
<circle style="fill:#394CE2;" cx="255.996" cy="255.997" r="255.996"/>
<path style="fill:#1B2DDD;" d="M512,256c0-10.245-0.621-20.343-1.79-30.273l-74.509-74.509c-6.098-7.238-15.215-11.86-25.361-11.86
	h-26.18L343.275,98.05h-174.55l-19.605,41.307h-47.46c-18.244,0-33.171,14.927-33.171,33.171v190.138
	c0,10.148,4.622,19.265,11.859,25.361L197.63,505.309c18.749,4.373,38.289,6.69,58.37,6.69C397.385,512,512,397.385,512,256z"/>
<polygon style="fill:#FFFFFF;" points="343.274,98.051 168.726,98.051 147.198,143.408 364.802,143.408 "/>
<polygon style="fill:#E1E1E3;" points="364.802,143.408 343.274,98.051 255.996,98.051 255.996,143.408 "/>
<path style="fill:#FF8800;" d="M410.339,395.839H101.661c-18.244,0-33.171-14.927-33.171-33.171V172.528
	c0-18.244,14.927-33.171,33.171-33.171h308.678c18.244,0,33.171,14.927,33.171,33.171v190.138
	C443.51,380.912,428.583,395.839,410.339,395.839z"/>
<path style="fill:#E67500;" d="M410.339,139.358H255.996v256.481h154.342c18.244,0,33.171-14.927,33.171-33.171V172.528
	C443.51,154.285,428.583,139.358,410.339,139.358z"/>
<rect x="68.492" y="245.747" style="fill:#FFC473;" width="375.019" height="43.714"/>
<rect x="255.996" y="245.747" style="fill:#FFA91F;" width="187.515" height="43.714"/>
<circle style="fill:#FFFFFF;" cx="255.996" cy="267.595" r="98.543"/>
<path style="fill:#E1E1E3;" d="M255.996,169.055V366.14c54.424,0,98.543-44.119,98.543-98.543S310.42,169.055,255.996,169.055z"/>
<circle style="fill:#0082D1;" cx="255.996" cy="267.595" r="73.074"/>
<path style="fill:#0070B4;" d="M255.996,194.524v146.148c40.358,0,73.074-32.716,73.074-73.074S296.354,194.524,255.996,194.524z"/>
<g>
	<circle style="fill:#FFFFFF;" cx="222.612" cy="245.747" r="19.373"/>
	<rect x="361.561" y="169.052" style="fill:#FFFFFF;" width="55.353" height="52.116"/>
</g>
<rect x="369.596" y="177.348" style="fill:#0070B4;" width="39.282" height="35.526"/>
<g>
</g>
<g>
</g>
<g>
</g>
<g>
</g>
<g>
</g>
<g>
</g>
<g>
</g>
<g>
</g>
<g>
</g>
<g>
</g>
<g>
</g>
<g>
</g>
<g>
</g>
<g>
</g>
<g>
</g>
</svg>
